<svg width="18" height="19" viewBox="0 0 18 19" fill="none" xmlns="http://www.w3.org/2000/svg">
<path fill-rule="evenodd" clip-rule="evenodd" d="M0.019043 12.0141C0.019043 12.5908 0.354313 13.1087 0.931417 13.1087C2.02674 13.1087 2.75538 12.792 3.68424 12.3627C4.70693 11.8903 5.54079 11.4094 6.51088 10.8335C6.66281 10.7432 6.82887 10.6669 6.96628 10.5545C7.01036 10.5193 7.04933 10.4784 7.08209 10.4327C7.09308 10.4171 7.12606 10.3782 7.12449 10.3587C7.12292 10.3393 7.11232 10.3494 7.10172 10.3509C7.06694 10.3559 7.03246 10.3628 6.99847 10.3716C6.89914 10.3957 6.80218 10.4264 6.70324 10.4572C6.57251 10.4961 6.44217 10.5408 6.31066 10.5825C6.15755 10.6315 6.00365 10.6794 5.84936 10.7249C5.68251 10.7735 5.51488 10.8198 5.34567 10.8607C5.17647 10.9016 5.00138 10.9385 4.82707 10.9677C4.6594 10.9962 4.49015 11.0147 4.32023 11.023C4.16408 11.031 4.00751 11.0243 3.85266 11.0027C3.71675 10.9843 3.58441 10.9458 3.46008 10.8883C2.15943 10.2657 4.38619 7.6749 4.86436 7.0951C6.24274 5.42184 7.92144 4.03732 9.76504 2.8925C10.2468 2.59197 10.744 2.31636 11.2545 2.06677C11.7091 1.84535 12.1751 1.64106 12.6643 1.50759C13.1397 1.37762 13.6587 1.30641 14.1475 1.40408C14.3019 1.43474 14.4516 1.48496 14.5931 1.55351C14.7162 1.61389 14.8317 1.68833 14.9374 1.77531C15.0497 1.86753 15.1537 1.96676 15.275 2.0477C15.3076 2.06949 15.3359 2.06949 15.3535 2.0333C15.3653 2.00957 15.3771 1.98505 15.3881 1.96053C15.4363 1.85135 15.4757 1.73853 15.5058 1.62316C15.6173 1.20796 15.6523 0.670959 15.3382 0.329692C14.9374 -0.105744 14.3815 -0.0150764 13.8538 0.0783147C12.4433 0.322299 11.0618 1.03908 9.81254 1.70955C7.25012 3.08278 4.84395 4.88718 2.89867 7.04374C1.97054 8.06402 1.16978 9.19141 0.513704 10.4015C0.430299 10.565 0.355348 10.7325 0.289143 10.9035C0.145849 11.2533 0.019043 11.6324 0.019043 12.0141Z" fill="#3DA1FF"/>
<path fill-rule="evenodd" clip-rule="evenodd" d="M8.85388 9.34845C8.98304 9.4076 9.03761 9.35663 9.18247 9.29592L10.2758 8.85426C10.7151 8.7025 12.4649 8.17484 12.9505 8.71456C13.4362 9.25429 13.1025 10.1438 12.8328 10.7026C12.6223 11.1369 12.3259 11.5217 12.013 11.8875C11.6785 12.2759 11.3539 12.686 10.9719 13.03C10.7952 13.1919 10.6131 13.3475 10.4333 13.5032L9.68106 14.1647C9.56878 14.2616 9.45336 14.3554 9.34108 14.4464C8.11345 15.4372 5.62248 17.1918 4.22409 18.0366C3.98304 18.1825 2.80802 18.8732 2.70752 19.0094C3.18451 19.0094 4.45454 18.2864 4.88442 18.0755C6.0084 17.5182 7.92541 16.4933 8.95948 15.8317C9.29554 15.6166 9.59273 15.4453 9.92957 15.2228C10.2664 15.0002 10.5577 14.8044 10.8718 14.585C11.7126 13.9896 12.518 13.3464 13.2838 12.6588C13.9956 12.0264 14.6579 11.3357 15.215 10.5633C15.3697 10.3485 15.516 10.128 15.6539 9.9018C16.0465 9.25351 17.1728 6.89071 15.765 6.40352C14.6359 6.01439 12.5556 7.09384 11.7822 7.53939L10.2864 8.38886C10.0348 8.54373 8.96655 9.19592 8.85388 9.34845Z" fill="black"/>
<path fill-rule="evenodd" clip-rule="evenodd" d="M14.1841 4.25596C14.1841 4.82409 14.7808 5.27509 15.3069 5.42763C17.2039 5.97864 18.9187 4.34429 17.3931 3.35941C16.2467 2.62006 14.1841 3.14617 14.1841 4.25441V4.25596Z" fill="black"/>
</svg>
