<svg width="191" height="62" viewBox="0 0 191 62" fill="none" xmlns="http://www.w3.org/2000/svg">
<rect width="190" height="62" rx="31" transform="matrix(1 1.74846e-07 1.74846e-07 -1 0.5 62)" fill="#2C313F"/>
<rect width="50" height="50" rx="25" transform="matrix(1 1.74846e-07 1.74846e-07 -1 134.5 56)" fill="#5AC4FF"/>
<path d="M36.7021 34.4316C36.7021 35.1934 36.5176 35.8555 36.1484 36.418C35.7793 36.9805 35.2402 37.4141 34.5312 37.7188C33.8281 38.0234 32.9727 38.1758 31.9648 38.1758C31.5195 38.1758 31.083 38.1465 30.6553 38.0879C30.2334 38.0293 29.8262 37.9443 29.4336 37.833C29.0469 37.7158 28.6777 37.5723 28.3262 37.4023V34.8711C28.9355 35.1406 29.5684 35.3838 30.2246 35.6006C30.8809 35.8174 31.5312 35.9258 32.1758 35.9258C32.6211 35.9258 32.9785 35.8672 33.248 35.75C33.5234 35.6328 33.7227 35.4717 33.8457 35.2666C33.9688 35.0615 34.0303 34.8271 34.0303 34.5635C34.0303 34.2412 33.9219 33.9658 33.7051 33.7373C33.4883 33.5088 33.1895 33.2949 32.8086 33.0957C32.4336 32.8965 32.0088 32.6826 31.5342 32.4541C31.2354 32.3135 30.9102 32.1436 30.5586 31.9443C30.207 31.7393 29.873 31.4902 29.5566 31.1973C29.2402 30.9043 28.9795 30.5498 28.7744 30.1338C28.5752 29.7119 28.4756 29.208 28.4756 28.6221C28.4756 27.8545 28.6514 27.1982 29.0029 26.6533C29.3545 26.1084 29.8555 25.6924 30.5059 25.4053C31.1621 25.1123 31.9355 24.9658 32.8262 24.9658C33.4941 24.9658 34.1299 25.0449 34.7334 25.2031C35.3428 25.3555 35.9785 25.5781 36.6406 25.8711L35.7617 27.9893C35.1699 27.749 34.6396 27.5645 34.1709 27.4355C33.7021 27.3008 33.2246 27.2334 32.7383 27.2334C32.3984 27.2334 32.1084 27.2891 31.8682 27.4004C31.6279 27.5059 31.4463 27.6582 31.3232 27.8574C31.2002 28.0508 31.1387 28.2764 31.1387 28.5342C31.1387 28.8389 31.2266 29.0967 31.4023 29.3076C31.584 29.5127 31.8535 29.7119 32.2109 29.9053C32.5742 30.0986 33.0254 30.3242 33.5645 30.582C34.2207 30.8926 34.7803 31.2178 35.2432 31.5576C35.7119 31.8916 36.0723 32.2871 36.3242 32.7441C36.5762 33.1953 36.7021 33.7578 36.7021 34.4316ZM49.4902 25.1504V33.4648C49.4902 34.3496 49.2939 35.1494 48.9014 35.8643C48.5146 36.5732 47.9258 37.1357 47.1348 37.5518C46.3496 37.9678 45.3594 38.1758 44.1641 38.1758C42.4648 38.1758 41.1699 37.7422 40.2793 36.875C39.3887 36.0078 38.9434 34.8594 38.9434 33.4297V25.1504H41.6592V33.0166C41.6592 34.0771 41.876 34.8213 42.3096 35.249C42.7432 35.6768 43.3848 35.8906 44.2344 35.8906C44.832 35.8906 45.3154 35.7881 45.6846 35.583C46.0596 35.3779 46.335 35.0615 46.5107 34.6338C46.6865 34.2061 46.7744 33.6611 46.7744 32.999V25.1504H49.4902ZM52.6367 25.1504H56.6357C58.3467 25.1504 59.6416 25.3906 60.5205 25.8711C61.3994 26.3516 61.8389 27.1953 61.8389 28.4023C61.8389 28.8887 61.7598 29.3281 61.6016 29.7207C61.4492 30.1133 61.2266 30.4355 60.9336 30.6875C60.6406 30.9395 60.2832 31.1035 59.8613 31.1797V31.2676C60.2891 31.3555 60.6758 31.5078 61.0215 31.7246C61.3672 31.9355 61.6426 32.2461 61.8477 32.6562C62.0586 33.0605 62.1641 33.5996 62.1641 34.2734C62.1641 35.0527 61.9736 35.7207 61.5928 36.2773C61.2119 36.834 60.667 37.2617 59.958 37.5605C59.2549 37.8535 58.417 38 57.4443 38H52.6367V25.1504ZM55.3613 30.2393H56.9434C57.7344 30.2393 58.2822 30.1162 58.5869 29.8701C58.8916 29.6182 59.0439 29.249 59.0439 28.7627C59.0439 28.2705 58.8623 27.9189 58.499 27.708C58.1416 27.4912 57.5732 27.3828 56.7939 27.3828H55.3613V30.2393ZM55.3613 32.4014V35.75H57.1367C57.957 35.75 58.5283 35.5918 58.8506 35.2754C59.1729 34.959 59.334 34.5342 59.334 34.001C59.334 33.6846 59.2637 33.4062 59.123 33.166C58.9824 32.9258 58.7451 32.7383 58.4111 32.6035C58.083 32.4688 57.6289 32.4014 57.0488 32.4014H55.3613ZM72.3154 34.4316C72.3154 35.1934 72.1309 35.8555 71.7617 36.418C71.3926 36.9805 70.8535 37.4141 70.1445 37.7188C69.4414 38.0234 68.5859 38.1758 67.5781 38.1758C67.1328 38.1758 66.6963 38.1465 66.2686 38.0879C65.8467 38.0293 65.4395 37.9443 65.0469 37.833C64.6602 37.7158 64.291 37.5723 63.9395 37.4023V34.8711C64.5488 35.1406 65.1816 35.3838 65.8379 35.6006C66.4941 35.8174 67.1445 35.9258 67.7891 35.9258C68.2344 35.9258 68.5918 35.8672 68.8613 35.75C69.1367 35.6328 69.3359 35.4717 69.459 35.2666C69.582 35.0615 69.6436 34.8271 69.6436 34.5635C69.6436 34.2412 69.5352 33.9658 69.3184 33.7373C69.1016 33.5088 68.8027 33.2949 68.4219 33.0957C68.0469 32.8965 67.6221 32.6826 67.1475 32.4541C66.8486 32.3135 66.5234 32.1436 66.1719 31.9443C65.8203 31.7393 65.4863 31.4902 65.1699 31.1973C64.8535 30.9043 64.5928 30.5498 64.3877 30.1338C64.1885 29.7119 64.0889 29.208 64.0889 28.6221C64.0889 27.8545 64.2646 27.1982 64.6162 26.6533C64.9678 26.1084 65.4688 25.6924 66.1191 25.4053C66.7754 25.1123 67.5488 24.9658 68.4395 24.9658C69.1074 24.9658 69.7432 25.0449 70.3467 25.2031C70.9561 25.3555 71.5918 25.5781 72.2539 25.8711L71.375 27.9893C70.7832 27.749 70.2529 27.5645 69.7842 27.4355C69.3154 27.3008 68.8379 27.2334 68.3516 27.2334C68.0117 27.2334 67.7217 27.2891 67.4814 27.4004C67.2412 27.5059 67.0596 27.6582 66.9365 27.8574C66.8135 28.0508 66.752 28.2764 66.752 28.5342C66.752 28.8389 66.8398 29.0967 67.0156 29.3076C67.1973 29.5127 67.4668 29.7119 67.8242 29.9053C68.1875 30.0986 68.6387 30.3242 69.1777 30.582C69.834 30.8926 70.3936 31.2178 70.8564 31.5576C71.3252 31.8916 71.6855 32.2871 71.9375 32.7441C72.1895 33.1953 72.3154 33.7578 72.3154 34.4316ZM80.1025 27.2334C79.5811 27.2334 79.1182 27.3359 78.7139 27.541C78.3154 27.7402 77.9785 28.0303 77.7031 28.4111C77.4336 28.792 77.2285 29.252 77.0879 29.791C76.9473 30.3301 76.877 30.9365 76.877 31.6104C76.877 32.5186 76.9883 33.2949 77.2109 33.9395C77.4395 34.5781 77.791 35.0674 78.2656 35.4072C78.7402 35.7412 79.3525 35.9082 80.1025 35.9082C80.624 35.9082 81.1455 35.8496 81.667 35.7324C82.1943 35.6152 82.7656 35.4482 83.3809 35.2314V37.5166C82.8125 37.751 82.2529 37.918 81.7021 38.0176C81.1514 38.123 80.5332 38.1758 79.8477 38.1758C78.5234 38.1758 77.4336 37.9033 76.5781 37.3584C75.7285 36.8076 75.0986 36.04 74.6885 35.0557C74.2783 34.0654 74.0732 32.9111 74.0732 31.5928C74.0732 30.6201 74.2051 29.7295 74.4688 28.9209C74.7324 28.1123 75.1191 27.4121 75.6289 26.8203C76.1387 26.2285 76.7686 25.7715 77.5186 25.4492C78.2686 25.127 79.1299 24.9658 80.1025 24.9658C80.7412 24.9658 81.3799 25.0479 82.0186 25.2119C82.6631 25.3701 83.2783 25.5898 83.8643 25.8711L82.9854 28.0859C82.5049 27.8574 82.0215 27.6582 81.5352 27.4883C81.0488 27.3184 80.5713 27.2334 80.1025 27.2334ZM89.8672 25.1504C91.0332 25.1504 91.9941 25.291 92.75 25.5723C93.5117 25.8535 94.0771 26.2783 94.4463 26.8467C94.8154 27.415 95 28.1328 95 29C95 29.5859 94.8887 30.0986 94.666 30.5381C94.4434 30.9775 94.1504 31.3496 93.7871 31.6543C93.4238 31.959 93.0312 32.208 92.6094 32.4014L96.3887 38H93.3652L90.2979 33.0693H88.8477V38H86.123V25.1504H89.8672ZM89.6738 27.3828H88.8477V30.8545H89.7266C90.6289 30.8545 91.2734 30.7051 91.6602 30.4062C92.0527 30.1016 92.249 29.6562 92.249 29.0703C92.249 28.4609 92.0381 28.0273 91.6162 27.7695C91.2002 27.5117 90.5527 27.3828 89.6738 27.3828ZM98.0059 38V25.1504H100.73V38H98.0059ZM103.965 25.1504H107.964C109.675 25.1504 110.97 25.3906 111.849 25.8711C112.728 26.3516 113.167 27.1953 113.167 28.4023C113.167 28.8887 113.088 29.3281 112.93 29.7207C112.777 30.1133 112.555 30.4355 112.262 30.6875C111.969 30.9395 111.611 31.1035 111.189 31.1797V31.2676C111.617 31.3555 112.004 31.5078 112.35 31.7246C112.695 31.9355 112.971 32.2461 113.176 32.6562C113.387 33.0605 113.492 33.5996 113.492 34.2734C113.492 35.0527 113.302 35.7207 112.921 36.2773C112.54 36.834 111.995 37.2617 111.286 37.5605C110.583 37.8535 109.745 38 108.772 38H103.965V25.1504ZM106.689 30.2393H108.271C109.062 30.2393 109.61 30.1162 109.915 29.8701C110.22 29.6182 110.372 29.249 110.372 28.7627C110.372 28.2705 110.19 27.9189 109.827 27.708C109.47 27.4912 108.901 27.3828 108.122 27.3828H106.689V30.2393ZM106.689 32.4014V35.75H108.465C109.285 35.75 109.856 35.5918 110.179 35.2754C110.501 34.959 110.662 34.5342 110.662 34.001C110.662 33.6846 110.592 33.4062 110.451 33.166C110.311 32.9258 110.073 32.7383 109.739 32.6035C109.411 32.4688 108.957 32.4014 108.377 32.4014H106.689ZM123.459 38H116.059V25.1504H123.459V27.3828H118.783V30.2041H123.134V32.4365H118.783V35.75H123.459V38Z" fill="white"/>
<path d="M165.743 25.758C165.743 25.2058 165.295 24.758 164.743 24.758L155.743 24.758C155.19 24.758 154.743 25.2058 154.743 25.758C154.743 26.3103 155.19 26.758 155.743 26.758L163.743 26.758L163.743 34.758C163.743 35.3103 164.19 35.758 164.743 35.758C165.295 35.758 165.743 35.3103 165.743 34.758L165.743 25.758ZM154.563 37.3522L165.45 26.4652L164.035 25.0509L153.148 35.938L154.563 37.3522Z" fill="#2C313F"/>
</svg>
